<svg id="Logo" xmlns="http://www.w3.org/2000/svg" width="50" height="68" viewBox="0 0 50 68">
  <rect id="Rectangle_7" data-name="Rectangle 7" width="50" height="68" rx="12" fill="#e6d5b8"/>
  <g id="Logo-2" data-name="Logo" transform="translate(5 6.991)">
    <path id="Path_6" data-name="Path 6" d="M359.259,262.668q0-4.306-.006-8.612a.642.642,0,0,1,.367-.652q7.463-4.3,14.909-8.637a.593.593,0,0,1,.708,0q7.442,4.336,14.907,8.641a.6.6,0,0,1,.378.6q-.018,8.609,0,17.22a.762.762,0,0,1-.444.755q-7.442,4.291-14.869,8.613a.537.537,0,0,1-.629,0q-7.49-4.348-14.99-8.681a.577.577,0,0,1-.333-.583c.01-2.886.007-5.772.007-8.658Zm1.37-.026c0,2.617.007,5.232-.008,7.849a.649.649,0,0,0,.377.651q6.758,3.9,13.505,7.834a.644.644,0,0,0,.75.013q6.725-3.92,13.465-7.813a.75.75,0,0,0,.438-.756q-.021-7.756,0-15.511a.754.754,0,0,0-.444-.755q-6.735-3.892-13.459-7.814a.645.645,0,0,0-.751.016q-6.746,3.927-13.5,7.833a.649.649,0,0,0-.377.651c.01,2.6,0,5.2,0,7.8Z" transform="translate(-354.927 -244.64)" fill="#4a3933"/>
    <path id="Path_7" data-name="Path 7" d="M437.1,660.212a10.749,10.749,0,0,0,2.169,2.852,4.865,4.865,0,0,0,.653.334,1.492,1.492,0,0,1,.258.246c-.111.079-.214.223-.324.229a3.317,3.317,0,0,1-3.1-1.386c-.383-.58-.755-1.167-1.136-1.747a1.811,1.811,0,0,0-.289-.359,1.258,1.258,0,0,0-.311-.15,1.039,1.039,0,0,0-.118.322c-.008.669-.013,1.331.007,2,.019.63.094.687.7.828.135.031.247.162.37.247a1.327,1.327,0,0,1-.434.178c-.94.019-1.879.019-2.819.008a1.374,1.374,0,0,1-.42-.147c.12-.1.228-.273.364-.3a.554.554,0,0,0,.514-.63c0-1.919.019-3.836.031-5.755a.758.758,0,0,0-.644-.823c-.111-.028-.188-.181-.281-.276.122-.055.243-.156.365-.156,1.033-.007,2.067-.036,3.1.028a5.492,5.492,0,0,1,1.7.378,1.827,1.827,0,0,1,.889,2.7A10.393,10.393,0,0,1,437.1,660.212Zm-2.192-2.184h0v1.021a.443.443,0,0,0,.473.5c.816.061,1.205-.172,1.311-1a4.251,4.251,0,0,0-.135-1.577.991.991,0,0,0-1.222-.571c-.522.1-.385.517-.422.842A6.872,6.872,0,0,0,434.911,658.028Z" transform="translate(-419.86 -609.872)" fill="#4a3933"/>
    <path id="Path_8" data-name="Path 8" d="M320.31,663.657c.1-.1.2-.288.308-.3.491-.049.638-.319.637-.775q0-2.831.018-5.661a.766.766,0,0,0-.667-.8c-.1-.027-.174-.164-.26-.25.1-.062.2-.179.305-.181,1.694-.012,3.389-.01,5.083-.01.106,0,.211.014.349.024.111.581.222,1.148.333,1.715l-.1.1c-.123-.066-.3-.1-.363-.2a2.38,2.38,0,0,0-2.63-.972.539.539,0,0,0-.333.39c-.037.787-.037,1.578-.017,2.366,0,.1.19.269.3.278.428.033.861,0,1.291.018.341.012.5-.13.545-.472.019-.128.17-.237.26-.356.069.127.192.252.2.381.022.557.019,1.115,0,1.672,0,.112-.111.216-.169.324-.1-.082-.261-.152-.278-.249-.111-.583-.5-.654-.994-.651-1.172.007-1.173-.006-1.171,1.178a10.725,10.725,0,0,0,.028,1.3.744.744,0,0,0,.324.533,2.836,2.836,0,0,0,2.826-.763,1.451,1.451,0,0,0,.217-.353c.111-.287.293-.371.6-.223-.2.633-.385,1.268-.6,1.9a.353.353,0,0,1-.279.162c-1.878.009-3.756.007-5.634.007Z" transform="translate(-320.31 -609.845)" fill="#4a3933"/>
    <path id="Path_9" data-name="Path 9" d="M520.643,661.716c-.2.633-.384,1.266-.6,1.9a.355.355,0,0,1-.28.162c-1.877.009-3.756.007-5.815.007.173-.205.261-.4.367-.416.491-.05.637-.321.637-.78q0-2.831.017-5.661a.765.765,0,0,0-.667-.8c-.1-.028-.174-.164-.26-.25.1-.062.2-.179.305-.181,1.71-.012,3.419-.01,5.13-.01.09,0,.18.014.3.026.111.58.222,1.147.333,1.715l-.1.1c-.123-.066-.3-.1-.363-.2a2.381,2.381,0,0,0-2.63-.972.539.539,0,0,0-.333.39c-.038.787-.037,1.578-.018,2.366,0,.1.191.269.3.278.429.033.861,0,1.292.018.341.012.5-.13.545-.472.018-.128.17-.237.26-.356.069.127.192.252.2.381.021.557.018,1.115,0,1.672,0,.112-.111.216-.17.324-.1-.082-.26-.152-.278-.249-.111-.583-.5-.654-1-.651-1.171.007-1.172,0-1.171,1.178a10.987,10.987,0,0,0,.029,1.3.744.744,0,0,0,.324.532,2.836,2.836,0,0,0,2.826-.763,2.523,2.523,0,0,0,.222-.352C520.22,661.623,520.219,661.623,520.643,661.716Z" transform="translate(-492.44 -609.845)" fill="#4a3933"/>
    <path id="Path_10" data-name="Path 10" d="M591.344,657.514c-.368.158-.511.061-.639-.256a3.625,3.625,0,0,0-.629-1.06,1.086,1.086,0,1,0-1.494,1.545,19.777,19.777,0,0,0,1.934,1.338,2.308,2.308,0,0,1,1.2,1.862,2.338,2.338,0,0,1-2.319,2.473,14.07,14.07,0,0,1-2.333-.223.522.522,0,0,1-.333-.343,14.389,14.389,0,0,1-.2-1.514.461.461,0,0,1,.145-.3.758.758,0,0,1,.435.194,6.258,6.258,0,0,0,.673,1.03,2.131,2.131,0,0,0,1.092.5.973.973,0,0,0,1.083-.685,1.15,1.15,0,0,0-.349-1.462c-.605-.474-1.262-.884-1.888-1.33a2.281,2.281,0,0,1-1.143-1.7,2.354,2.354,0,0,1,2.309-2.393,11.936,11.936,0,0,1,2.049.264.386.386,0,0,1,.263.245C591.262,656.305,591.3,656.918,591.344,657.514Z" transform="translate(-556.958 -609.407)" fill="#4a3933"/>
    <path id="Path_11" data-name="Path 11" d="M646.916,671.033h1.35c.063.638.034.669-.514.674h-.819c0,1.115-.034,2.2.016,3.272.023.513.423.678,1,.547a1.486,1.486,0,0,1,.4.019c-.069.132-.111.328-.214.385a3.371,3.371,0,0,1-.975.382,1.529,1.529,0,0,1-1.8-1.513c-.02-.881-.018-1.763,0-2.643.007-.334-.074-.483-.435-.46a1.28,1.28,0,0,1-.461-.163,1.7,1.7,0,0,1,.3-.454c.519-.408,1.055-.792,1.593-1.174a2.115,2.115,0,0,1,.392-.176,1.749,1.749,0,0,1,.161.431A7.643,7.643,0,0,1,646.916,671.033Z" transform="translate(-608.453 -622.33)" fill="#4a3933"/>
    <path id="Path_12" data-name="Path 12" d="M391.991,698.95c-.073-.794-.042-.841.649-.892.719-.052,1.437-.1,2.157-.118.1,0,.293.174.28.223-.056.223-.154.611-.269.622C393.883,698.88,392.95,698.9,391.991,698.95Z" transform="translate(-384.005 -647.395)" fill="#4a3933"/>
    <path id="Path_13" data-name="Path 13" d="M444.621,343.93a4.721,4.721,0,0,1-1.209-2.8c-.01-.094-.182-.206-.3-.244-.141-.046-.318.015-.455-.036a.446.446,0,0,1-.245-.273.347.347,0,0,1,.177-.275,1.108,1.108,0,0,1,.444-.064h7.355a.756.756,0,0,1,.362.029c.111.068.253.214.248.321s-.173.243-.291.269a3.364,3.364,0,0,1-.678.012,4.906,4.906,0,0,1-1.231,3.065h2.495a1.024,1.024,0,0,1,.411.014c.113.055.213.21.318.32-.1.1-.192.252-.311.279a3.428,3.428,0,0,1-.694.012,5.6,5.6,0,0,1-1.648,4c.2.019.322.041.444.041h2.914a.876.876,0,0,1,.4.054.414.414,0,0,1,.2.305c-.01.1-.151.223-.26.26a1.04,1.04,0,0,1-.459.014c-.47-.069-.634.111-.653.6a5.911,5.911,0,0,1-1,3.185,3.983,3.983,0,0,1-3.52,1.934c-.463-.009-.928-.028-1.387,0a4.172,4.172,0,0,1-4.046-2.751,11.7,11.7,0,0,1-.566-2.463c-.061-.394-.163-.557-.561-.505a1.257,1.257,0,0,1-.5-.011c-.123-.036-.222-.168-.327-.259.1-.117.178-.273.3-.342a.951.951,0,0,1,.409-.023h3.3a4.966,4.966,0,0,1-1.475-2.61,4.852,4.852,0,0,1-.138-.913c-.007-.387-.123-.591-.54-.513-.014,0-.034.007-.046,0-.162-.1-.444-.187-.462-.305-.033-.308.239-.327.487-.324h2.127Zm-2.52,5.328a1.642,1.642,0,0,0-.026.27c.026.292.047.585.094.874a4.293,4.293,0,0,0,2.56,3.69,6.5,6.5,0,0,0,3.469.133c2.132-.359,3.235-2.78,3.084-4.967Zm8.243-4.671h-7.261a4.906,4.906,0,0,0,.763,2.741,2.4,2.4,0,0,0,2.333,1.274c.473-.048.962.042,1.431-.023a2.561,2.561,0,0,0,1.14-.39A4.354,4.354,0,0,0,450.344,344.587Zm-1.035-3.669h-5.215a3.652,3.652,0,0,0,1.03,2.584c.69.681,1.536.4,2.32.414C448.4,343.935,449.364,342.34,449.309,340.918Z" transform="translate(-426.749 -329.563)" fill="#4a3933"/>
  </g>
</svg>
